<svg width="394" height="73" viewBox="0 0 394 73" fill="none" xmlns="http://www.w3.org/2000/svg">
<path d="M354.482 71L355.334 66.0781L383.012 33.9901H360.49L361.598 27.3636H393.899L393.111 32.2855L365.37 64.3736H387.891L386.783 71H354.482Z" fill="black"/>
<path d="M316.034 71L323.278 27.3636H339.642C342.994 27.3636 345.714 27.946 347.802 29.1108C349.89 30.2756 351.346 31.9091 352.17 34.0114C352.994 36.0994 353.171 38.5355 352.703 41.3196C352.248 44.1037 351.254 46.5256 349.72 48.5852C348.2 50.6307 346.19 52.2145 343.69 53.3366C341.204 54.4588 338.285 55.0199 334.933 55.0199H323.278L324.386 48.4574H334.997C336.957 48.4574 338.605 48.1875 339.94 47.6477C341.275 47.0937 342.326 46.2912 343.093 45.2401C343.875 44.1747 344.393 42.8679 344.649 41.3196C344.89 39.7713 344.798 38.4503 344.372 37.3565C343.96 36.2486 343.171 35.4105 342.007 34.8423C340.856 34.2599 339.301 33.9687 337.34 33.9687H330.096L323.939 71H316.034ZM341.858 51.2273L349.379 71H340.558L333.228 51.2273H341.858Z" fill="black"/>
<path d="M278.219 71H269.782L292.388 27.3636H302.147L310.286 71H301.849L295.989 36.3125H295.648L278.219 71ZM281.33 53.8906H304.342L303.276 60.2401H280.265L281.33 53.8906Z" fill="black"/>
<path d="M242.498 33.9901L243.606 27.3636H278.422L277.314 33.9901H263.827L257.69 71H249.849L255.986 33.9901H242.498Z" fill="black"/>
<path d="M228.228 39.5724C228.285 37.598 227.681 36.0852 226.417 35.0341C225.167 33.983 223.37 33.4574 221.027 33.4574C219.379 33.4574 217.923 33.706 216.659 34.2031C215.409 34.6861 214.4 35.3608 213.633 36.2273C212.866 37.0795 212.39 38.0526 212.206 39.1463C212.049 40.0412 212.127 40.8224 212.44 41.4901C212.752 42.1577 213.228 42.7259 213.867 43.1946C214.521 43.6634 215.26 44.054 216.083 44.3665C216.921 44.679 217.774 44.9418 218.64 45.1548L222.561 46.1776C224.123 46.5611 225.615 47.0795 227.035 47.733C228.456 48.3722 229.684 49.196 230.721 50.2045C231.772 51.1989 232.539 52.3991 233.022 53.8054C233.505 55.2116 233.583 56.8594 233.257 58.7486C232.831 61.3054 231.801 63.5568 230.167 65.5028C228.548 67.4347 226.417 68.9474 223.775 70.0412C221.147 71.1207 218.086 71.6605 214.592 71.6605C211.211 71.6605 208.356 71.1349 206.027 70.0838C203.697 69.0185 201.992 67.4773 200.913 65.4602C199.848 63.4432 199.507 60.9929 199.89 58.1094H207.667C207.511 59.6293 207.76 60.8935 208.413 61.902C209.081 62.9105 210.039 63.6634 211.289 64.1605C212.539 64.6577 213.988 64.9062 215.636 64.9062C217.355 64.9062 218.91 64.6506 220.302 64.1392C221.694 63.6136 222.831 62.8892 223.711 61.9659C224.606 61.0284 225.153 59.9347 225.352 58.6847C225.551 57.5625 225.387 56.625 224.862 55.8722C224.336 55.1193 223.519 54.4943 222.411 53.9972C221.318 53.4858 220.011 53.0312 218.491 52.6335L213.761 51.3551C210.338 50.4176 207.738 49.0114 205.963 47.1364C204.201 45.2614 203.576 42.7614 204.088 39.6364C204.514 37.0511 205.586 34.7997 207.305 32.8821C209.024 30.9503 211.176 29.4517 213.761 28.3864C216.346 27.3068 219.173 26.767 222.241 26.767C225.338 26.767 227.958 27.3068 230.103 28.3864C232.262 29.4659 233.839 30.9716 234.833 32.9034C235.842 34.821 236.176 37.044 235.835 39.5724H228.228Z" fill="black"/>
<path d="M160.057 71L167.301 27.3636H183.665C187.017 27.3636 189.737 27.946 191.825 29.1108C193.914 30.2756 195.37 31.9091 196.193 34.0114C197.017 36.0994 197.195 38.5355 196.726 41.3196C196.271 44.1037 195.277 46.5256 193.743 48.5852C192.223 50.6307 190.213 52.2145 187.713 53.3366C185.227 54.4588 182.308 55.0199 178.956 55.0199H167.301L168.409 48.4574H179.02C180.98 48.4574 182.628 48.1875 183.963 47.6477C185.298 47.0937 186.35 46.2912 187.117 45.2401C187.898 44.1747 188.416 42.8679 188.672 41.3196C188.914 39.7713 188.821 38.4503 188.395 37.3565C187.983 36.2486 187.195 35.4105 186.03 34.8423C184.879 34.2599 183.324 33.9687 181.364 33.9687H174.12L167.962 71H160.057ZM185.881 51.2273L193.402 71H184.581L177.252 51.2273H185.881Z" fill="black"/>
<path d="M122.243 71H113.805L136.412 27.3636H146.17L154.31 71H145.872L140.013 36.3125H139.672L122.243 71ZM125.354 53.8906H148.365L147.3 60.2401H124.288L125.354 53.8906Z" fill="black"/>
<path d="M114.679 42.0866H106.838C106.838 40.7798 106.625 39.6222 106.199 38.6136C105.773 37.5909 105.176 36.7244 104.409 36.0142C103.642 35.304 102.733 34.7713 101.682 34.4162C100.631 34.0469 99.4658 33.8622 98.1874 33.8622C95.7442 33.8622 93.4715 34.4801 91.3692 35.7159C89.2669 36.9517 87.4842 38.7486 86.0212 41.1065C84.5581 43.4503 83.5425 46.2983 82.9743 49.6506C82.4487 52.9176 82.4985 55.652 83.1235 57.8537C83.7627 60.0554 84.8706 61.7173 86.4473 62.8395C88.024 63.9474 89.9416 64.5014 92.2002 64.5014C93.578 64.5014 94.899 64.331 96.1632 63.9901C97.4274 63.6349 98.5922 63.1165 99.6575 62.4347C100.737 61.7386 101.682 60.8935 102.491 59.8991C103.315 58.9048 103.954 57.7756 104.409 56.5114H112.356C111.703 58.5852 110.744 60.5384 109.48 62.3707C108.216 64.1889 106.696 65.794 104.92 67.1861C103.145 68.5639 101.156 69.6435 98.9544 70.4247C96.7527 71.206 94.3806 71.5966 91.8379 71.5966C87.9317 71.5966 84.5865 70.6875 81.8024 68.8693C79.0325 67.0369 77.0439 64.4162 75.8365 61.0071C74.6291 57.5838 74.4161 53.4858 75.1973 48.7131C75.9786 44.0682 77.4842 40.1122 79.7144 36.8452C81.9587 33.5781 84.6931 31.0852 87.9175 29.3665C91.1561 27.6335 94.6433 26.767 98.3791 26.767C100.851 26.767 103.095 27.108 105.112 27.7898C107.143 28.4716 108.883 29.473 110.332 30.794C111.781 32.1009 112.882 33.706 113.635 35.6094C114.402 37.4986 114.75 39.6577 114.679 42.0866Z" fill="black"/>
<path d="M46.4648 27.7704L46.5771 28.1161H74.4141L52.1865 44.2792L51.8936 44.4931L52.0059 44.8378L60.4951 70.9902L38.2695 54.828L37.9756 54.6142L37.6816 54.828L15.4551 70.9902L23.9453 44.8378L24.0576 44.4931L23.7646 44.2792L1.53711 28.1161H29.374L29.4863 27.7704L37.9756 1.61906L46.4648 27.7704Z" fill="white" stroke="black"/>
<path d="M37.8635 8.1235L45.0778 30.0167H68.4239L49.5365 43.5474L56.7509 65.4406L37.8635 51.9099L18.976 65.4406L26.1904 43.5474L7.30298 30.0167H30.6491L37.8635 8.1235Z" fill="#D70000"/>
</svg>
